<?xml version="1.0" encoding="UTF-8"?>
<svg xmlns="http://www.w3.org/2000/svg" width="96" height="96" viewBox="0 0 96 96" role="img" aria-label="Neural Cartography">
  <title>Neural Cartography</title>
  <defs>
    <linearGradient id="bg" x1="0" y1="0" x2="1" y2="1">
      <stop offset="0" stop-color="hsl(321 35% 26.740857425145805%)"/>
      <stop offset="1" stop-color="hsl(339 40% 24.188555176369846%)"/>
    </linearGradient>
    <filter id="soft" x="-10%" y="-10%" width="120%" height="120%">
      <feGaussianBlur stdDeviation="0.58"/>
    </filter>
  </defs>

  <rect x="0" y="0" width="96" height="96" rx="21" fill="url(#bg)"/>

  <!-- grain -->
  <g><circle cx="35.16" cy="17.68" r="0.86" fill="white" opacity="0.238"/><circle cx="90.79" cy="93.96" r="0.78" fill="white" opacity="0.228"/><circle cx="63.51" cy="86.95" r="1.25" fill="white" opacity="0.247"/><circle cx="74.41" cy="14.24" r="0.95" fill="white" opacity="0.128"/><circle cx="61.85" cy="51.95" r="0.67" fill="white" opacity="0.201"/><circle cx="4.35" cy="54.81" r="0.65" fill="white" opacity="0.131"/><circle cx="33.27" cy="72.01" r="0.79" fill="white" opacity="0.111"/><circle cx="61.05" cy="93.03" r="1.29" fill="white" opacity="0.225"/><circle cx="43.52" cy="61.92" r="0.92" fill="white" opacity="0.233"/><circle cx="6.33" cy="78.46" r="1.25" fill="white" opacity="0.235"/><circle cx="43.03" cy="86.87" r="1.06" fill="white" opacity="0.203"/><circle cx="8.05" cy="80.90" r="0.97" fill="white" opacity="0.115"/><circle cx="46.84" cy="2.92" r="0.63" fill="white" opacity="0.106"/><circle cx="95.78" cy="23.89" r="1.48" fill="white" opacity="0.208"/><circle cx="70.09" cy="6.78" r="1.44" fill="white" opacity="0.113"/><circle cx="63.92" cy="9.85" r="0.97" fill="white" opacity="0.246"/><circle cx="71.67" cy="16.89" r="0.75" fill="white" opacity="0.170"/><circle cx="42.08" cy="91.02" r="1.07" fill="white" opacity="0.198"/><circle cx="54.71" cy="42.04" r="0.92" fill="white" opacity="0.211"/><circle cx="40.49" cy="78.73" r="1.41" fill="white" opacity="0.115"/><circle cx="40.54" cy="65.20" r="1.44" fill="white" opacity="0.249"/><circle cx="94.36" cy="89.41" r="0.90" fill="white" opacity="0.192"/><circle cx="10.95" cy="90.81" r="0.62" fill="white" opacity="0.163"/><circle cx="65.95" cy="62.13" r="0.90" fill="white" opacity="0.157"/><circle cx="82.30" cy="32.57" r="1.16" fill="white" opacity="0.133"/><circle cx="64.06" cy="23.99" r="1.16" fill="white" opacity="0.125"/><circle cx="94.96" cy="14.79" r="0.79" fill="white" opacity="0.259"/><circle cx="86.95" cy="48.19" r="1.06" fill="white" opacity="0.170"/><circle cx="44.08" cy="7.48" r="1.34" fill="white" opacity="0.235"/><circle cx="21.38" cy="67.61" r="0.85" fill="white" opacity="0.190"/></g>

  <!-- glyph -->
  <g>
    <circle cx="33.60" cy="19.20" r="4.03" fill="hsl(222 60% 62%)" opacity="0.92"/>
    <circle cx="91.20" cy="19.20" r="4.03" fill="hsl(222 60% 62%)" opacity="0.92"/>
    <rect x="43.10" y="28.70" width="9.79" height="9.79" rx="3.17" fill="hsl(222 60% 62%)" opacity="0.92"/>
    <path d="M 19.20 42.82 L 24.38 48.00 L 19.20 53.18 L 14.02 48.00 Z" fill="hsl(12 70% 60%)" opacity="0.92"/>
    <path d="M 76.80 42.82 L 81.98 48.00 L 76.80 53.18 L 71.62 48.00 Z" fill="hsl(12 70% 60%)" opacity="0.92"/>
    <circle cx="33.60" cy="48.00" r="4.03" fill="hsl(12 70% 60%)" opacity="0.92"/>
    <circle cx="91.20" cy="48.00" r="4.03" fill="hsl(12 70% 60%)" opacity="0.92"/>
    <path d="M 48.00 42.82 L 53.18 48.00 L 48.00 53.18 L 42.82 48.00 Z" fill="hsl(37 70% 55%)" opacity="0.92"/>
    <rect x="28.70" y="57.50" width="9.79" height="9.79" rx="3.17" fill="hsl(141 30% 92%)" opacity="0.92"/>
    <rect x="57.50" y="57.50" width="9.79" height="9.79" rx="31.97" fill="hsl(141 30% 92%)" opacity="0.92"/>
    <path d="M 48.00 57.22 L 53.18 62.40 L 48.00 67.58 L 42.82 62.40 Z" fill="hsl(12 70% 60%)" opacity="0.92"/>
  </g>

  <!-- overlay ring -->
  <circle cx="44.28" cy="55.16" r="26.30" fill="none" stroke="hsl(222 60% 62%)" stroke-width="4.06" opacity="0.70"/>

  <!-- overlay triangle -->
  <path d="M 65.33 25.23
           L 88.22 29.35
           L 69.45 48.12
           Z"
        fill="hsl(141 30% 92%)" opacity="0.78" filter="url(#soft)"/>

  <!-- rounded mask edge polish -->
  <rect x="1.92" y="1.92"
        width="92.16" height="92.16"
        rx="18.06" fill="none"
        stroke="rgba(255,255,255,0.12)" stroke-width="2"/>
</svg>
